<svg xmlns="http://www.w3.org/2000/svg" xmlns:xlink="http://www.w3.org/1999/xlink" width="300" zoomAndPan="magnify" viewBox="0 0 224.87999 30.000001" height="40" preserveAspectRatio="xMidYMid meet" version="1.0"><defs><g/></defs><g fill="#ff00ff" fill-opacity="1"><g transform="translate(7.390926, 19.995043)"><g><path d="M 9.855469 0 C 11.132812 0 12.175781 -1.042969 12.175781 -2.320312 L 12.175781 -9.277344 C 12.175781 -10.550781 11.132812 -11.59375 9.855469 -11.59375 L 0.578125 -11.59375 L 0.578125 0 Z M 2.898438 -9.277344 L 9.855469 -9.277344 L 9.855469 -2.320312 L 2.898438 -2.320312 Z M 2.898438 -9.277344 "/></g></g></g><g fill="#ff00ff" fill-opacity="1"><g transform="translate(22.434471, 19.995043)"><g><path d="M 12.175781 -11.59375 L 2.898438 -11.59375 C 1.625 -11.59375 0.578125 -10.550781 0.578125 -9.277344 L 0.578125 -2.320312 C 0.578125 -1.042969 1.625 0 2.898438 0 L 12.175781 0 L 12.175781 -2.320312 L 2.898438 -2.320312 L 2.898438 -4.636719 L 12.175781 -4.636719 L 12.175781 -6.957031 L 2.898438 -6.957031 L 2.898438 -9.277344 L 12.175781 -9.277344 Z M 12.175781 -11.59375 "/></g></g></g><g fill="#ff00ff" fill-opacity="1"><g transform="translate(37.478015, 19.995043)"><g><path d="M 6.378906 0 C 6.882812 0 7.40625 -0.1875 7.828125 -0.550781 L 11.738281 -3.914062 C 12.015625 -4.160156 12.160156 -4.464844 12.160156 -4.839844 L 12.175781 -11.59375 L 9.855469 -11.59375 L 9.855469 -5.363281 L 6.378906 -2.363281 L 2.898438 -5.363281 L 2.898438 -11.59375 L 0.578125 -11.59375 L 0.578125 -4.839844 C 0.578125 -4.476562 0.738281 -4.160156 1.015625 -3.914062 L 4.929688 -0.550781 C 5.363281 -0.1875 5.871094 0 6.378906 0 Z M 6.378906 0 "/></g></g></g><g fill="#ff00ff" fill-opacity="1"><g transform="translate(52.52156, 19.995043)"><g><path d="M 9.855469 0 C 11.132812 0 12.175781 -1.042969 12.175781 -2.320312 L 12.175781 -9.277344 C 12.175781 -10.550781 11.132812 -11.59375 9.855469 -11.59375 L 0.578125 -11.59375 L 0.578125 0 Z M 2.898438 -9.277344 L 9.855469 -9.277344 L 9.855469 -2.320312 L 2.898438 -2.320312 Z M 2.898438 -9.277344 "/></g></g></g><g fill="#ff00ff" fill-opacity="1"><g transform="translate(67.565103, 19.995043)"><g><path d="M 2.898438 -11.59375 C 1.625 -11.59375 0.578125 -10.550781 0.578125 -9.277344 L 0.578125 0 L 2.898438 0 L 2.898438 -4.636719 L 9.855469 -4.636719 L 9.855469 0 L 12.175781 0 L 12.175781 -9.277344 C 12.175781 -10.550781 11.132812 -11.59375 9.855469 -11.59375 Z M 2.898438 -9.277344 L 9.855469 -9.277344 L 9.855469 -6.957031 L 2.898438 -6.957031 Z M 2.898438 -9.277344 "/></g></g></g><g fill="#ff00ff" fill-opacity="1"><g transform="translate(82.60865, 19.995043)"><g><path d="M 2.898438 0 L 2.898438 -7.636719 L 10.1875 -0.347656 C 10.40625 -0.128906 10.695312 0 11.015625 0 C 11.652344 0 12.175781 -0.523438 12.175781 -1.160156 L 12.175781 -11.59375 L 9.855469 -11.59375 L 9.855469 -3.957031 L 2.566406 -11.246094 C 2.347656 -11.464844 2.058594 -11.59375 1.738281 -11.59375 C 1.101562 -11.59375 0.578125 -11.074219 0.578125 -10.433594 L 0.578125 0 Z M 2.898438 0 "/></g></g></g><g fill="#ff00ff" fill-opacity="1"><g transform="translate(97.652194, 19.995043)"><g><path d="M 12.175781 0 L 12.175781 -2.320312 L 7.535156 -2.320312 L 7.535156 -9.277344 L 12.175781 -9.277344 L 12.175781 -11.59375 L 0.578125 -11.59375 L 0.578125 -9.277344 L 5.21875 -9.277344 L 5.21875 -2.320312 L 0.578125 -2.320312 L 0.578125 0 Z M 12.175781 0 "/></g></g></g><g fill="#ff00ff" fill-opacity="1"><g transform="translate(112.695737, 19.995043)"><g><path d="M 12.175781 -11.59375 L 2.898438 -11.59375 C 1.625 -11.59375 0.578125 -10.550781 0.578125 -9.277344 L 0.578125 -2.320312 C 0.578125 -1.042969 1.625 0 2.898438 0 L 12.175781 0 L 12.175781 -2.320312 L 2.898438 -2.320312 L 2.898438 -4.636719 L 12.175781 -4.636719 L 12.175781 -6.957031 L 2.898438 -6.957031 L 2.898438 -9.277344 L 12.175781 -9.277344 Z M 12.175781 -11.59375 "/></g></g></g><g fill="#ff00ff" fill-opacity="1"><g transform="translate(127.73928, 19.995043)"><g><path d="M 12.175781 0 L 12.175781 -2.320312 L 2.898438 -2.320312 L 2.898438 -11.59375 L 0.578125 -11.59375 L 0.578125 -2.320312 C 0.578125 -1.042969 1.625 0 2.898438 0 Z M 12.175781 0 "/></g></g></g><g fill="#ff00ff" fill-opacity="1"><g transform="translate(142.782831, 19.995043)"><g><path d="M 2.898438 -11.59375 C 1.625 -11.59375 0.578125 -10.550781 0.578125 -9.277344 L 0.578125 0 L 2.898438 0 L 2.898438 -9.277344 L 5.21875 -9.277344 L 5.21875 0 L 7.535156 0 L 7.535156 -9.277344 L 9.855469 -9.277344 L 9.855469 0 L 12.175781 0 L 12.175781 -9.277344 C 12.175781 -10.550781 11.132812 -11.59375 9.855469 -11.59375 Z M 2.898438 -11.59375 "/></g></g></g><g fill="#ff00ff" fill-opacity="1"><g transform="translate(157.826374, 19.995043)"><g><path d="M 2.898438 -11.59375 C 1.625 -11.59375 0.578125 -10.550781 0.578125 -9.277344 L 0.578125 0 L 2.898438 0 L 2.898438 -4.636719 L 9.855469 -4.636719 L 9.855469 0 L 12.175781 0 L 12.175781 -9.277344 C 12.175781 -10.550781 11.132812 -11.59375 9.855469 -11.59375 Z M 2.898438 -9.277344 L 9.855469 -9.277344 L 9.855469 -6.957031 L 2.898438 -6.957031 Z M 2.898438 -9.277344 "/></g></g></g><g fill="#ff00ff" fill-opacity="1"><g transform="translate(172.869917, 19.995043)"><g><path d="M 12.175781 0 L 12.175781 -2.320312 L 7.535156 -2.320312 L 7.535156 -9.277344 L 12.175781 -9.277344 L 12.175781 -11.59375 L 0.578125 -11.59375 L 0.578125 -9.277344 L 5.21875 -9.277344 L 5.21875 -2.320312 L 0.578125 -2.320312 L 0.578125 0 Z M 12.175781 0 "/></g></g></g><g fill="#ff00ff" fill-opacity="1"><g transform="translate(187.91346, 19.995043)"><g><path d="M 12.175781 0 L 12.175781 -2.320312 L 2.898438 -2.320312 L 2.898438 -9.277344 L 12.175781 -9.277344 L 12.175781 -11.59375 L 2.898438 -11.59375 C 1.625 -11.59375 0.578125 -10.550781 0.578125 -9.277344 L 0.578125 -2.320312 C 0.578125 -1.042969 1.625 0 2.898438 0 Z M 12.175781 0 "/></g></g></g><g fill="#ff00ff" fill-opacity="1"><g transform="translate(202.957004, 19.995043)"><g><path d="M 2.898438 -11.59375 C 1.625 -11.59375 0.578125 -10.550781 0.578125 -9.277344 L 0.578125 0 L 2.898438 0 L 2.898438 -4.636719 L 9.855469 -4.636719 L 9.855469 0 L 12.175781 0 L 12.175781 -9.277344 C 12.175781 -10.550781 11.132812 -11.59375 9.855469 -11.59375 Z M 2.898438 -9.277344 L 9.855469 -9.277344 L 9.855469 -6.957031 L 2.898438 -6.957031 Z M 2.898438 -9.277344 "/></g></g></g><g fill="#00ffff" fill-opacity="1"><g transform="translate(9.156363, 20.402626)"><g><path d="M 9.855469 0 C 11.132812 0 12.175781 -1.042969 12.175781 -2.320312 L 12.175781 -9.277344 C 12.175781 -10.550781 11.132812 -11.59375 9.855469 -11.59375 L 0.578125 -11.59375 L 0.578125 0 Z M 2.898438 -9.277344 L 9.855469 -9.277344 L 9.855469 -2.320312 L 2.898438 -2.320312 Z M 2.898438 -9.277344 "/></g></g></g><g fill="#00ffff" fill-opacity="1"><g transform="translate(24.199907, 20.402626)"><g><path d="M 12.175781 -11.59375 L 2.898438 -11.59375 C 1.625 -11.59375 0.578125 -10.550781 0.578125 -9.277344 L 0.578125 -2.320312 C 0.578125 -1.042969 1.625 0 2.898438 0 L 12.175781 0 L 12.175781 -2.320312 L 2.898438 -2.320312 L 2.898438 -4.636719 L 12.175781 -4.636719 L 12.175781 -6.957031 L 2.898438 -6.957031 L 2.898438 -9.277344 L 12.175781 -9.277344 Z M 12.175781 -11.59375 "/></g></g></g><g fill="#00ffff" fill-opacity="1"><g transform="translate(39.243451, 20.402626)"><g><path d="M 6.378906 0 C 6.882812 0 7.40625 -0.1875 7.828125 -0.550781 L 11.738281 -3.914062 C 12.015625 -4.160156 12.160156 -4.464844 12.160156 -4.839844 L 12.175781 -11.59375 L 9.855469 -11.59375 L 9.855469 -5.363281 L 6.378906 -2.363281 L 2.898438 -5.363281 L 2.898438 -11.59375 L 0.578125 -11.59375 L 0.578125 -4.839844 C 0.578125 -4.476562 0.738281 -4.160156 1.015625 -3.914062 L 4.929688 -0.550781 C 5.363281 -0.1875 5.871094 0 6.378906 0 Z M 6.378906 0 "/></g></g></g><g fill="#00ffff" fill-opacity="1"><g transform="translate(54.286996, 20.402626)"><g><path d="M 9.855469 0 C 11.132812 0 12.175781 -1.042969 12.175781 -2.320312 L 12.175781 -9.277344 C 12.175781 -10.550781 11.132812 -11.59375 9.855469 -11.59375 L 0.578125 -11.59375 L 0.578125 0 Z M 2.898438 -9.277344 L 9.855469 -9.277344 L 9.855469 -2.320312 L 2.898438 -2.320312 Z M 2.898438 -9.277344 "/></g></g></g><g fill="#00ffff" fill-opacity="1"><g transform="translate(69.33054, 20.402626)"><g><path d="M 2.898438 -11.59375 C 1.625 -11.59375 0.578125 -10.550781 0.578125 -9.277344 L 0.578125 0 L 2.898438 0 L 2.898438 -4.636719 L 9.855469 -4.636719 L 9.855469 0 L 12.175781 0 L 12.175781 -9.277344 C 12.175781 -10.550781 11.132812 -11.59375 9.855469 -11.59375 Z M 2.898438 -9.277344 L 9.855469 -9.277344 L 9.855469 -6.957031 L 2.898438 -6.957031 Z M 2.898438 -9.277344 "/></g></g></g><g fill="#00ffff" fill-opacity="1"><g transform="translate(84.374087, 20.402626)"><g><path d="M 2.898438 0 L 2.898438 -7.636719 L 10.1875 -0.347656 C 10.40625 -0.128906 10.695312 0 11.015625 0 C 11.652344 0 12.175781 -0.523438 12.175781 -1.160156 L 12.175781 -11.59375 L 9.855469 -11.59375 L 9.855469 -3.957031 L 2.566406 -11.246094 C 2.347656 -11.464844 2.058594 -11.59375 1.738281 -11.59375 C 1.101562 -11.59375 0.578125 -11.074219 0.578125 -10.433594 L 0.578125 0 Z M 2.898438 0 "/></g></g></g><g fill="#00ffff" fill-opacity="1"><g transform="translate(99.41763, 20.402626)"><g><path d="M 12.175781 0 L 12.175781 -2.320312 L 7.535156 -2.320312 L 7.535156 -9.277344 L 12.175781 -9.277344 L 12.175781 -11.59375 L 0.578125 -11.59375 L 0.578125 -9.277344 L 5.21875 -9.277344 L 5.21875 -2.320312 L 0.578125 -2.320312 L 0.578125 0 Z M 12.175781 0 "/></g></g></g><g fill="#00ffff" fill-opacity="1"><g transform="translate(114.461173, 20.402626)"><g><path d="M 12.175781 -11.59375 L 2.898438 -11.59375 C 1.625 -11.59375 0.578125 -10.550781 0.578125 -9.277344 L 0.578125 -2.320312 C 0.578125 -1.042969 1.625 0 2.898438 0 L 12.175781 0 L 12.175781 -2.320312 L 2.898438 -2.320312 L 2.898438 -4.636719 L 12.175781 -4.636719 L 12.175781 -6.957031 L 2.898438 -6.957031 L 2.898438 -9.277344 L 12.175781 -9.277344 Z M 12.175781 -11.59375 "/></g></g></g><g fill="#00ffff" fill-opacity="1"><g transform="translate(129.504716, 20.402626)"><g><path d="M 12.175781 0 L 12.175781 -2.320312 L 2.898438 -2.320312 L 2.898438 -11.59375 L 0.578125 -11.59375 L 0.578125 -2.320312 C 0.578125 -1.042969 1.625 0 2.898438 0 Z M 12.175781 0 "/></g></g></g><g fill="#00ffff" fill-opacity="1"><g transform="translate(144.548267, 20.402626)"><g><path d="M 2.898438 -11.59375 C 1.625 -11.59375 0.578125 -10.550781 0.578125 -9.277344 L 0.578125 0 L 2.898438 0 L 2.898438 -9.277344 L 5.21875 -9.277344 L 5.21875 0 L 7.535156 0 L 7.535156 -9.277344 L 9.855469 -9.277344 L 9.855469 0 L 12.175781 0 L 12.175781 -9.277344 C 12.175781 -10.550781 11.132812 -11.59375 9.855469 -11.59375 Z M 2.898438 -11.59375 "/></g></g></g><g fill="#00ffff" fill-opacity="1"><g transform="translate(159.59181, 20.402626)"><g><path d="M 2.898438 -11.59375 C 1.625 -11.59375 0.578125 -10.550781 0.578125 -9.277344 L 0.578125 0 L 2.898438 0 L 2.898438 -4.636719 L 9.855469 -4.636719 L 9.855469 0 L 12.175781 0 L 12.175781 -9.277344 C 12.175781 -10.550781 11.132812 -11.59375 9.855469 -11.59375 Z M 2.898438 -9.277344 L 9.855469 -9.277344 L 9.855469 -6.957031 L 2.898438 -6.957031 Z M 2.898438 -9.277344 "/></g></g></g><g fill="#00ffff" fill-opacity="1"><g transform="translate(174.635353, 20.402626)"><g><path d="M 12.175781 0 L 12.175781 -2.320312 L 7.535156 -2.320312 L 7.535156 -9.277344 L 12.175781 -9.277344 L 12.175781 -11.59375 L 0.578125 -11.59375 L 0.578125 -9.277344 L 5.21875 -9.277344 L 5.21875 -2.320312 L 0.578125 -2.320312 L 0.578125 0 Z M 12.175781 0 "/></g></g></g><g fill="#00ffff" fill-opacity="1"><g transform="translate(189.678897, 20.402626)"><g><path d="M 12.175781 0 L 12.175781 -2.320312 L 2.898438 -2.320312 L 2.898438 -9.277344 L 12.175781 -9.277344 L 12.175781 -11.59375 L 2.898438 -11.59375 C 1.625 -11.59375 0.578125 -10.550781 0.578125 -9.277344 L 0.578125 -2.320312 C 0.578125 -1.042969 1.625 0 2.898438 0 Z M 12.175781 0 "/></g></g></g><g fill="#00ffff" fill-opacity="1"><g transform="translate(204.72244, 20.402626)"><g><path d="M 2.898438 -11.59375 C 1.625 -11.59375 0.578125 -10.550781 0.578125 -9.277344 L 0.578125 0 L 2.898438 0 L 2.898438 -4.636719 L 9.855469 -4.636719 L 9.855469 0 L 12.175781 0 L 12.175781 -9.277344 C 12.175781 -10.550781 11.132812 -11.59375 9.855469 -11.59375 Z M 2.898438 -9.277344 L 9.855469 -9.277344 L 9.855469 -6.957031 L 2.898438 -6.957031 Z M 2.898438 -9.277344 "/></g></g></g><g fill="#ffffff" fill-opacity="1"><g transform="translate(8.273644, 20.198834)"><g><path d="M 9.855469 0 C 11.132812 0 12.175781 -1.042969 12.175781 -2.320312 L 12.175781 -9.277344 C 12.175781 -10.550781 11.132812 -11.59375 9.855469 -11.59375 L 0.578125 -11.59375 L 0.578125 0 Z M 2.898438 -9.277344 L 9.855469 -9.277344 L 9.855469 -2.320312 L 2.898438 -2.320312 Z M 2.898438 -9.277344 "/></g></g></g><g fill="#ffffff" fill-opacity="1"><g transform="translate(23.317189, 20.198834)"><g><path d="M 12.175781 -11.59375 L 2.898438 -11.59375 C 1.625 -11.59375 0.578125 -10.550781 0.578125 -9.277344 L 0.578125 -2.320312 C 0.578125 -1.042969 1.625 0 2.898438 0 L 12.175781 0 L 12.175781 -2.320312 L 2.898438 -2.320312 L 2.898438 -4.636719 L 12.175781 -4.636719 L 12.175781 -6.957031 L 2.898438 -6.957031 L 2.898438 -9.277344 L 12.175781 -9.277344 Z M 12.175781 -11.59375 "/></g></g></g><g fill="#ffffff" fill-opacity="1"><g transform="translate(38.360733, 20.198834)"><g><path d="M 6.378906 0 C 6.882812 0 7.40625 -0.1875 7.828125 -0.550781 L 11.738281 -3.914062 C 12.015625 -4.160156 12.160156 -4.464844 12.160156 -4.839844 L 12.175781 -11.59375 L 9.855469 -11.59375 L 9.855469 -5.363281 L 6.378906 -2.363281 L 2.898438 -5.363281 L 2.898438 -11.59375 L 0.578125 -11.59375 L 0.578125 -4.839844 C 0.578125 -4.476562 0.738281 -4.160156 1.015625 -3.914062 L 4.929688 -0.550781 C 5.363281 -0.1875 5.871094 0 6.378906 0 Z M 6.378906 0 "/></g></g></g><g fill="#ffffff" fill-opacity="1"><g transform="translate(53.404278, 20.198834)"><g><path d="M 9.855469 0 C 11.132812 0 12.175781 -1.042969 12.175781 -2.320312 L 12.175781 -9.277344 C 12.175781 -10.550781 11.132812 -11.59375 9.855469 -11.59375 L 0.578125 -11.59375 L 0.578125 0 Z M 2.898438 -9.277344 L 9.855469 -9.277344 L 9.855469 -2.320312 L 2.898438 -2.320312 Z M 2.898438 -9.277344 "/></g></g></g><g fill="#ffffff" fill-opacity="1"><g transform="translate(68.447821, 20.198834)"><g><path d="M 2.898438 -11.59375 C 1.625 -11.59375 0.578125 -10.550781 0.578125 -9.277344 L 0.578125 0 L 2.898438 0 L 2.898438 -4.636719 L 9.855469 -4.636719 L 9.855469 0 L 12.175781 0 L 12.175781 -9.277344 C 12.175781 -10.550781 11.132812 -11.59375 9.855469 -11.59375 Z M 2.898438 -9.277344 L 9.855469 -9.277344 L 9.855469 -6.957031 L 2.898438 -6.957031 Z M 2.898438 -9.277344 "/></g></g></g><g fill="#ffffff" fill-opacity="1"><g transform="translate(83.491368, 20.198834)"><g><path d="M 2.898438 0 L 2.898438 -7.636719 L 10.1875 -0.347656 C 10.40625 -0.128906 10.695312 0 11.015625 0 C 11.652344 0 12.175781 -0.523438 12.175781 -1.160156 L 12.175781 -11.59375 L 9.855469 -11.59375 L 9.855469 -3.957031 L 2.566406 -11.246094 C 2.347656 -11.464844 2.058594 -11.59375 1.738281 -11.59375 C 1.101562 -11.59375 0.578125 -11.074219 0.578125 -10.433594 L 0.578125 0 Z M 2.898438 0 "/></g></g></g><g fill="#ffffff" fill-opacity="1"><g transform="translate(98.534912, 20.198834)"><g><path d="M 12.175781 0 L 12.175781 -2.320312 L 7.535156 -2.320312 L 7.535156 -9.277344 L 12.175781 -9.277344 L 12.175781 -11.59375 L 0.578125 -11.59375 L 0.578125 -9.277344 L 5.21875 -9.277344 L 5.21875 -2.320312 L 0.578125 -2.320312 L 0.578125 0 Z M 12.175781 0 "/></g></g></g><g fill="#ffffff" fill-opacity="1"><g transform="translate(113.578455, 20.198834)"><g><path d="M 12.175781 -11.59375 L 2.898438 -11.59375 C 1.625 -11.59375 0.578125 -10.550781 0.578125 -9.277344 L 0.578125 -2.320312 C 0.578125 -1.042969 1.625 0 2.898438 0 L 12.175781 0 L 12.175781 -2.320312 L 2.898438 -2.320312 L 2.898438 -4.636719 L 12.175781 -4.636719 L 12.175781 -6.957031 L 2.898438 -6.957031 L 2.898438 -9.277344 L 12.175781 -9.277344 Z M 12.175781 -11.59375 "/></g></g></g><g fill="#ffffff" fill-opacity="1"><g transform="translate(128.621998, 20.198834)"><g><path d="M 12.175781 0 L 12.175781 -2.320312 L 2.898438 -2.320312 L 2.898438 -11.59375 L 0.578125 -11.59375 L 0.578125 -2.320312 C 0.578125 -1.042969 1.625 0 2.898438 0 Z M 12.175781 0 "/></g></g></g><g fill="#ffffff" fill-opacity="1"><g transform="translate(143.665549, 20.198834)"><g><path d="M 2.898438 -11.59375 C 1.625 -11.59375 0.578125 -10.550781 0.578125 -9.277344 L 0.578125 0 L 2.898438 0 L 2.898438 -9.277344 L 5.21875 -9.277344 L 5.21875 0 L 7.535156 0 L 7.535156 -9.277344 L 9.855469 -9.277344 L 9.855469 0 L 12.175781 0 L 12.175781 -9.277344 C 12.175781 -10.550781 11.132812 -11.59375 9.855469 -11.59375 Z M 2.898438 -11.59375 "/></g></g></g><g fill="#ffffff" fill-opacity="1"><g transform="translate(158.709092, 20.198834)"><g><path d="M 2.898438 -11.59375 C 1.625 -11.59375 0.578125 -10.550781 0.578125 -9.277344 L 0.578125 0 L 2.898438 0 L 2.898438 -4.636719 L 9.855469 -4.636719 L 9.855469 0 L 12.175781 0 L 12.175781 -9.277344 C 12.175781 -10.550781 11.132812 -11.59375 9.855469 -11.59375 Z M 2.898438 -9.277344 L 9.855469 -9.277344 L 9.855469 -6.957031 L 2.898438 -6.957031 Z M 2.898438 -9.277344 "/></g></g></g><g fill="#ffffff" fill-opacity="1"><g transform="translate(173.752635, 20.198834)"><g><path d="M 12.175781 0 L 12.175781 -2.320312 L 7.535156 -2.320312 L 7.535156 -9.277344 L 12.175781 -9.277344 L 12.175781 -11.59375 L 0.578125 -11.59375 L 0.578125 -9.277344 L 5.21875 -9.277344 L 5.21875 -2.320312 L 0.578125 -2.320312 L 0.578125 0 Z M 12.175781 0 "/></g></g></g><g fill="#ffffff" fill-opacity="1"><g transform="translate(188.796178, 20.198834)"><g><path d="M 12.175781 0 L 12.175781 -2.320312 L 2.898438 -2.320312 L 2.898438 -9.277344 L 12.175781 -9.277344 L 12.175781 -11.59375 L 2.898438 -11.59375 C 1.625 -11.59375 0.578125 -10.550781 0.578125 -9.277344 L 0.578125 -2.320312 C 0.578125 -1.042969 1.625 0 2.898438 0 Z M 12.175781 0 "/></g></g></g><g fill="#ffffff" fill-opacity="1"><g transform="translate(203.839722, 20.198834)"><g><path d="M 2.898438 -11.59375 C 1.625 -11.59375 0.578125 -10.550781 0.578125 -9.277344 L 0.578125 0 L 2.898438 0 L 2.898438 -4.636719 L 9.855469 -4.636719 L 9.855469 0 L 12.175781 0 L 12.175781 -9.277344 C 12.175781 -10.550781 11.132812 -11.59375 9.855469 -11.59375 Z M 2.898438 -9.277344 L 9.855469 -9.277344 L 9.855469 -6.957031 L 2.898438 -6.957031 Z M 2.898438 -9.277344 "/></g></g></g></svg>